<mxfile host="Electron" agent="Mozilla/5.0 (Windows NT 10.0; Win64; x64) AppleWebKit/537.36 (KHTML, like Gecko) draw.io/28.1.2 Chrome/138.0.7204.243 Electron/37.4.0 Safari/537.36" version="28.1.2">
  <diagram name="Page-1" id="MAXsRW7apozDEzRiC-Gp">
    <mxGraphModel dx="2443" dy="2560" grid="1" gridSize="10" guides="1" tooltips="1" connect="1" arrows="1" fold="1" page="1" pageScale="1" pageWidth="850" pageHeight="1100" math="0" shadow="0">
      <root>
        <mxCell id="0" />
        <mxCell id="1" parent="0" />
        <mxCell id="ayr6GmwNHQ1uvb6nFKyW-2" value="" style="rounded=0;whiteSpace=wrap;html=1;fillColor=default;movable=0;resizable=0;rotatable=0;deletable=0;editable=0;locked=1;connectable=0;" parent="1" vertex="1">
          <mxGeometry x="230" y="40" width="1270" height="700" as="geometry" />
        </mxCell>
        <mxCell id="ayr6GmwNHQ1uvb6nFKyW-4" style="edgeStyle=orthogonalEdgeStyle;rounded=0;orthogonalLoop=1;jettySize=auto;html=1;movable=1;resizable=1;rotatable=1;deletable=1;editable=1;locked=0;connectable=1;fontSize=17;" parent="1" source="ayr6GmwNHQ1uvb6nFKyW-3" edge="1">
          <mxGeometry relative="1" as="geometry">
            <mxPoint x="115" y="760" as="targetPoint" />
          </mxGeometry>
        </mxCell>
        <mxCell id="ayr6GmwNHQ1uvb6nFKyW-3" value="Resident" style="shape=umlActor;verticalLabelPosition=bottom;verticalAlign=top;html=1;outlineConnect=0;movable=0;resizable=0;rotatable=0;deletable=0;editable=0;locked=1;connectable=0;" parent="1" vertex="1">
          <mxGeometry x="100" y="45" width="30" height="60" as="geometry" />
        </mxCell>
        <mxCell id="NLJ27F6-nMZJsIWNo_Eq-42" style="edgeStyle=orthogonalEdgeStyle;rounded=0;orthogonalLoop=1;jettySize=auto;html=1;fontSize=17;" edge="1" parent="1" source="ayr6GmwNHQ1uvb6nFKyW-6">
          <mxGeometry relative="1" as="geometry">
            <mxPoint x="1755" y="750" as="targetPoint" />
          </mxGeometry>
        </mxCell>
        <mxCell id="ayr6GmwNHQ1uvb6nFKyW-6" value="Waste Agency/Individual" style="shape=umlActor;verticalLabelPosition=bottom;verticalAlign=top;html=1;outlineConnect=0;fontSize=17;" parent="1" vertex="1">
          <mxGeometry x="1740" y="-40" width="30" height="60" as="geometry" />
        </mxCell>
        <mxCell id="NLJ27F6-nMZJsIWNo_Eq-5" style="edgeStyle=orthogonalEdgeStyle;rounded=0;orthogonalLoop=1;jettySize=auto;html=1;fontSize=17;" edge="1" parent="1" source="NLJ27F6-nMZJsIWNo_Eq-13">
          <mxGeometry relative="1" as="geometry">
            <mxPoint x="329" y="750" as="targetPoint" />
          </mxGeometry>
        </mxCell>
        <mxCell id="NLJ27F6-nMZJsIWNo_Eq-1" value="Register" style="rounded=0;whiteSpace=wrap;html=1;fontSize=17;" vertex="1" parent="1">
          <mxGeometry x="270" y="-50" width="120" height="60" as="geometry" />
        </mxCell>
        <mxCell id="NLJ27F6-nMZJsIWNo_Eq-4" style="edgeStyle=orthogonalEdgeStyle;rounded=0;orthogonalLoop=1;jettySize=auto;html=1;fontSize=17;" edge="1" parent="1" source="NLJ27F6-nMZJsIWNo_Eq-17">
          <mxGeometry relative="1" as="geometry">
            <mxPoint x="485" y="750" as="targetPoint" />
          </mxGeometry>
        </mxCell>
        <mxCell id="NLJ27F6-nMZJsIWNo_Eq-2" value="Login" style="rounded=0;whiteSpace=wrap;html=1;fontSize=17;" vertex="1" parent="1">
          <mxGeometry x="425" y="-50" width="120" height="60" as="geometry" />
        </mxCell>
        <mxCell id="NLJ27F6-nMZJsIWNo_Eq-8" style="edgeStyle=orthogonalEdgeStyle;rounded=0;orthogonalLoop=1;jettySize=auto;html=1;fontSize=17;" edge="1" parent="1" source="NLJ27F6-nMZJsIWNo_Eq-22">
          <mxGeometry relative="1" as="geometry">
            <mxPoint x="629" y="750" as="targetPoint" />
          </mxGeometry>
        </mxCell>
        <mxCell id="NLJ27F6-nMZJsIWNo_Eq-7" value="Request Pickup" style="rounded=0;whiteSpace=wrap;html=1;fontSize=17;" vertex="1" parent="1">
          <mxGeometry x="570" y="-50" width="120" height="60" as="geometry" />
        </mxCell>
        <mxCell id="NLJ27F6-nMZJsIWNo_Eq-10" style="edgeStyle=orthogonalEdgeStyle;rounded=0;orthogonalLoop=1;jettySize=auto;html=1;fontSize=17;" edge="1" parent="1" source="NLJ27F6-nMZJsIWNo_Eq-32">
          <mxGeometry relative="1" as="geometry">
            <mxPoint x="945" y="750" as="targetPoint" />
          </mxGeometry>
        </mxCell>
        <mxCell id="NLJ27F6-nMZJsIWNo_Eq-9" value="Logout" style="rounded=0;whiteSpace=wrap;html=1;fontSize=17;" vertex="1" parent="1">
          <mxGeometry x="885" y="-50" width="120" height="60" as="geometry" />
        </mxCell>
        <mxCell id="NLJ27F6-nMZJsIWNo_Eq-11" value="Report Issues" style="rounded=0;whiteSpace=wrap;html=1;fontSize=17;" vertex="1" parent="1">
          <mxGeometry x="730" y="-50" width="120" height="60" as="geometry" />
        </mxCell>
        <mxCell id="NLJ27F6-nMZJsIWNo_Eq-12" style="edgeStyle=orthogonalEdgeStyle;rounded=0;orthogonalLoop=1;jettySize=auto;html=1;fontSize=17;" edge="1" source="NLJ27F6-nMZJsIWNo_Eq-26" parent="1">
          <mxGeometry relative="1" as="geometry">
            <mxPoint x="789" y="750" as="targetPoint" />
          </mxGeometry>
        </mxCell>
        <mxCell id="NLJ27F6-nMZJsIWNo_Eq-14" value="" style="edgeStyle=orthogonalEdgeStyle;rounded=0;orthogonalLoop=1;jettySize=auto;html=1;fontSize=17;" edge="1" parent="1" source="NLJ27F6-nMZJsIWNo_Eq-1" target="NLJ27F6-nMZJsIWNo_Eq-13">
          <mxGeometry relative="1" as="geometry">
            <mxPoint x="330" y="630" as="targetPoint" />
            <mxPoint x="330" y="10" as="sourcePoint" />
          </mxGeometry>
        </mxCell>
        <mxCell id="NLJ27F6-nMZJsIWNo_Eq-13" value="" style="rounded=0;whiteSpace=wrap;html=1;movable=1;resizable=1;rotatable=1;deletable=1;editable=1;locked=0;connectable=1;fontSize=17;" vertex="1" parent="1">
          <mxGeometry x="315" y="50" width="30" height="90" as="geometry" />
        </mxCell>
        <mxCell id="NLJ27F6-nMZJsIWNo_Eq-15" value="Registers Accont" style="endArrow=classic;html=1;rounded=0;entryX=0;entryY=0.5;entryDx=0;entryDy=0;fontSize=17;" edge="1" parent="1" target="NLJ27F6-nMZJsIWNo_Eq-13">
          <mxGeometry width="50" height="50" relative="1" as="geometry">
            <mxPoint x="120" y="95" as="sourcePoint" />
            <mxPoint x="190" y="170" as="targetPoint" />
          </mxGeometry>
        </mxCell>
        <mxCell id="NLJ27F6-nMZJsIWNo_Eq-16" value="Login Account" style="endArrow=classic;html=1;rounded=0;fontSize=17;" edge="1" parent="1">
          <mxGeometry width="50" height="50" relative="1" as="geometry">
            <mxPoint x="120" y="194.41" as="sourcePoint" />
            <mxPoint x="470" y="194.41" as="targetPoint" />
          </mxGeometry>
        </mxCell>
        <mxCell id="NLJ27F6-nMZJsIWNo_Eq-18" value="" style="edgeStyle=orthogonalEdgeStyle;rounded=0;orthogonalLoop=1;jettySize=auto;html=1;fontSize=17;" edge="1" parent="1" source="NLJ27F6-nMZJsIWNo_Eq-2" target="NLJ27F6-nMZJsIWNo_Eq-17">
          <mxGeometry relative="1" as="geometry">
            <mxPoint x="485" y="630" as="targetPoint" />
            <mxPoint x="485" y="10" as="sourcePoint" />
          </mxGeometry>
        </mxCell>
        <mxCell id="NLJ27F6-nMZJsIWNo_Eq-17" value="" style="rounded=0;whiteSpace=wrap;html=1;movable=1;resizable=1;rotatable=1;deletable=1;editable=1;locked=0;connectable=1;fontSize=17;" vertex="1" parent="1">
          <mxGeometry x="470" y="140" width="30" height="110" as="geometry" />
        </mxCell>
        <mxCell id="NLJ27F6-nMZJsIWNo_Eq-20" value="Allows user in" style="html=1;verticalAlign=bottom;labelBackgroundColor=none;endArrow=block;endFill=1;dashed=1;rounded=0;fontSize=17;" edge="1" parent="1">
          <mxGeometry width="160" relative="1" as="geometry">
            <mxPoint x="460" y="240" as="sourcePoint" />
            <mxPoint x="120" y="240" as="targetPoint" />
            <mxPoint as="offset" />
          </mxGeometry>
        </mxCell>
        <mxCell id="NLJ27F6-nMZJsIWNo_Eq-23" value="" style="edgeStyle=orthogonalEdgeStyle;rounded=0;orthogonalLoop=1;jettySize=auto;html=1;fontSize=17;" edge="1" parent="1" source="NLJ27F6-nMZJsIWNo_Eq-7" target="NLJ27F6-nMZJsIWNo_Eq-22">
          <mxGeometry relative="1" as="geometry">
            <mxPoint x="630" y="630" as="targetPoint" />
            <mxPoint x="630" y="10" as="sourcePoint" />
          </mxGeometry>
        </mxCell>
        <mxCell id="NLJ27F6-nMZJsIWNo_Eq-22" value="" style="rounded=0;whiteSpace=wrap;html=1;movable=1;resizable=1;rotatable=1;deletable=1;editable=1;locked=0;connectable=1;fontSize=17;" vertex="1" parent="1">
          <mxGeometry x="615" y="260" width="30" height="100" as="geometry" />
        </mxCell>
        <mxCell id="NLJ27F6-nMZJsIWNo_Eq-24" value="Request for bin pickup" style="endArrow=classic;html=1;rounded=0;fontSize=17;" edge="1" parent="1">
          <mxGeometry width="50" height="50" relative="1" as="geometry">
            <mxPoint x="120" y="290" as="sourcePoint" />
            <mxPoint x="610" y="290" as="targetPoint" />
          </mxGeometry>
        </mxCell>
        <mxCell id="NLJ27F6-nMZJsIWNo_Eq-25" value="Allows user in" style="html=1;verticalAlign=bottom;labelBackgroundColor=none;endArrow=block;endFill=1;dashed=1;rounded=0;fontSize=17;" edge="1" parent="1">
          <mxGeometry width="160" relative="1" as="geometry">
            <mxPoint x="610" y="335" as="sourcePoint" />
            <mxPoint x="120" y="336" as="targetPoint" />
          </mxGeometry>
        </mxCell>
        <mxCell id="NLJ27F6-nMZJsIWNo_Eq-27" value="" style="edgeStyle=orthogonalEdgeStyle;rounded=0;orthogonalLoop=1;jettySize=auto;html=1;fontSize=17;" edge="1" parent="1" source="NLJ27F6-nMZJsIWNo_Eq-11" target="NLJ27F6-nMZJsIWNo_Eq-26">
          <mxGeometry relative="1" as="geometry">
            <mxPoint x="790" y="640" as="targetPoint" />
            <mxPoint x="790" y="10" as="sourcePoint" />
          </mxGeometry>
        </mxCell>
        <mxCell id="NLJ27F6-nMZJsIWNo_Eq-26" value="" style="rounded=0;whiteSpace=wrap;html=1;movable=1;resizable=1;rotatable=1;deletable=1;editable=1;locked=0;connectable=1;fontSize=17;" vertex="1" parent="1">
          <mxGeometry x="775" y="380" width="30" height="120" as="geometry" />
        </mxCell>
        <mxCell id="NLJ27F6-nMZJsIWNo_Eq-28" value="Make report" style="endArrow=classic;html=1;rounded=0;fontSize=17;" edge="1" parent="1">
          <mxGeometry width="50" height="50" relative="1" as="geometry">
            <mxPoint x="130" y="430" as="sourcePoint" />
            <mxPoint x="760" y="430" as="targetPoint" />
          </mxGeometry>
        </mxCell>
        <mxCell id="NLJ27F6-nMZJsIWNo_Eq-31" value="Report success message" style="html=1;verticalAlign=bottom;labelBackgroundColor=none;endArrow=block;endFill=1;dashed=1;rounded=0;fontSize=17;" edge="1" parent="1">
          <mxGeometry width="160" relative="1" as="geometry">
            <mxPoint x="770" y="470" as="sourcePoint" />
            <mxPoint x="130" y="471" as="targetPoint" />
          </mxGeometry>
        </mxCell>
        <mxCell id="NLJ27F6-nMZJsIWNo_Eq-33" value="" style="edgeStyle=orthogonalEdgeStyle;rounded=0;orthogonalLoop=1;jettySize=auto;html=1;fontSize=17;" edge="1" parent="1" source="NLJ27F6-nMZJsIWNo_Eq-9" target="NLJ27F6-nMZJsIWNo_Eq-32">
          <mxGeometry relative="1" as="geometry">
            <mxPoint x="945" y="640" as="targetPoint" />
            <mxPoint x="945" y="10" as="sourcePoint" />
          </mxGeometry>
        </mxCell>
        <mxCell id="NLJ27F6-nMZJsIWNo_Eq-32" value="" style="rounded=0;whiteSpace=wrap;html=1;movable=1;resizable=1;rotatable=1;deletable=1;editable=1;locked=0;connectable=1;fontSize=17;" vertex="1" parent="1">
          <mxGeometry x="930" y="510" width="30" height="200" as="geometry" />
        </mxCell>
        <mxCell id="NLJ27F6-nMZJsIWNo_Eq-34" value="Request logout" style="endArrow=classic;html=1;rounded=0;fontSize=17;" edge="1" parent="1">
          <mxGeometry width="50" height="50" relative="1" as="geometry">
            <mxPoint x="130" y="570" as="sourcePoint" />
            <mxPoint x="930" y="570" as="targetPoint" />
          </mxGeometry>
        </mxCell>
        <mxCell id="NLJ27F6-nMZJsIWNo_Eq-36" value="Logout assurance prompt" style="html=1;verticalAlign=bottom;labelBackgroundColor=none;endArrow=block;endFill=1;dashed=1;rounded=0;fontSize=17;" edge="1" parent="1">
          <mxGeometry width="160" relative="1" as="geometry">
            <mxPoint x="930" y="610" as="sourcePoint" />
            <mxPoint x="130" y="611" as="targetPoint" />
          </mxGeometry>
        </mxCell>
        <mxCell id="NLJ27F6-nMZJsIWNo_Eq-37" value="Logout confirmation" style="endArrow=classic;html=1;rounded=0;fontSize=17;" edge="1" parent="1">
          <mxGeometry width="50" height="50" relative="1" as="geometry">
            <mxPoint x="130" y="660" as="sourcePoint" />
            <mxPoint x="930" y="660" as="targetPoint" />
          </mxGeometry>
        </mxCell>
        <mxCell id="NLJ27F6-nMZJsIWNo_Eq-39" style="edgeStyle=orthogonalEdgeStyle;rounded=0;orthogonalLoop=1;jettySize=auto;html=1;fontSize=17;" edge="1" parent="1" source="NLJ27F6-nMZJsIWNo_Eq-44">
          <mxGeometry relative="1" as="geometry">
            <mxPoint x="1110" y="760" as="targetPoint" />
          </mxGeometry>
        </mxCell>
        <mxCell id="NLJ27F6-nMZJsIWNo_Eq-38" value="View request" style="rounded=0;whiteSpace=wrap;html=1;fontSize=17;" vertex="1" parent="1">
          <mxGeometry x="1050" y="-50" width="120" height="60" as="geometry" />
        </mxCell>
        <mxCell id="NLJ27F6-nMZJsIWNo_Eq-49" style="edgeStyle=orthogonalEdgeStyle;rounded=0;orthogonalLoop=1;jettySize=auto;html=1;fontSize=17;" edge="1" parent="1" source="NLJ27F6-nMZJsIWNo_Eq-50">
          <mxGeometry relative="1" as="geometry">
            <mxPoint x="1275" y="760" as="targetPoint" />
          </mxGeometry>
        </mxCell>
        <mxCell id="NLJ27F6-nMZJsIWNo_Eq-40" value="View Routes" style="rounded=0;whiteSpace=wrap;html=1;fontSize=17;" vertex="1" parent="1">
          <mxGeometry x="1215" y="-50" width="120" height="60" as="geometry" />
        </mxCell>
        <mxCell id="NLJ27F6-nMZJsIWNo_Eq-41" value="Login Account" style="endArrow=classic;html=1;rounded=0;fontSize=17;" edge="1" parent="1">
          <mxGeometry width="50" height="50" relative="1" as="geometry">
            <mxPoint x="1740" y="160" as="sourcePoint" />
            <mxPoint x="520" y="160" as="targetPoint" />
          </mxGeometry>
        </mxCell>
        <mxCell id="NLJ27F6-nMZJsIWNo_Eq-43" value="Allow user in" style="html=1;verticalAlign=bottom;labelBackgroundColor=none;endArrow=block;endFill=1;dashed=1;rounded=0;fontSize=17;" edge="1" parent="1">
          <mxGeometry width="160" relative="1" as="geometry">
            <mxPoint x="520" y="203" as="sourcePoint" />
            <mxPoint x="1740" y="203" as="targetPoint" />
            <mxPoint as="offset" />
          </mxGeometry>
        </mxCell>
        <mxCell id="NLJ27F6-nMZJsIWNo_Eq-45" value="" style="edgeStyle=orthogonalEdgeStyle;rounded=0;orthogonalLoop=1;jettySize=auto;html=1;fontSize=17;" edge="1" parent="1" source="NLJ27F6-nMZJsIWNo_Eq-38" target="NLJ27F6-nMZJsIWNo_Eq-44">
          <mxGeometry relative="1" as="geometry">
            <mxPoint x="1110" y="760" as="targetPoint" />
            <mxPoint x="1110" y="10" as="sourcePoint" />
          </mxGeometry>
        </mxCell>
        <mxCell id="NLJ27F6-nMZJsIWNo_Eq-44" value="" style="rounded=0;whiteSpace=wrap;html=1;movable=1;resizable=1;rotatable=1;deletable=1;editable=1;locked=0;connectable=1;fontSize=17;" vertex="1" parent="1">
          <mxGeometry x="1095" y="220" width="30" height="110" as="geometry" />
        </mxCell>
        <mxCell id="NLJ27F6-nMZJsIWNo_Eq-46" value="Make request to view pending request" style="endArrow=classic;html=1;rounded=0;fontSize=17;" edge="1" parent="1">
          <mxGeometry width="50" height="50" relative="1" as="geometry">
            <mxPoint x="1750" y="260" as="sourcePoint" />
            <mxPoint x="1130" y="260" as="targetPoint" />
          </mxGeometry>
        </mxCell>
        <mxCell id="NLJ27F6-nMZJsIWNo_Eq-47" value="Sends request" style="html=1;verticalAlign=bottom;labelBackgroundColor=none;endArrow=block;endFill=1;dashed=1;rounded=0;fontSize=17;" edge="1" parent="1">
          <mxGeometry width="160" relative="1" as="geometry">
            <mxPoint x="1140" y="306" as="sourcePoint" />
            <mxPoint x="1750" y="306" as="targetPoint" />
            <mxPoint as="offset" />
          </mxGeometry>
        </mxCell>
        <mxCell id="NLJ27F6-nMZJsIWNo_Eq-51" value="" style="edgeStyle=orthogonalEdgeStyle;rounded=0;orthogonalLoop=1;jettySize=auto;html=1;fontSize=17;" edge="1" parent="1" source="NLJ27F6-nMZJsIWNo_Eq-40" target="NLJ27F6-nMZJsIWNo_Eq-50">
          <mxGeometry relative="1" as="geometry">
            <mxPoint x="1275" y="760" as="targetPoint" />
            <mxPoint x="1275" y="10" as="sourcePoint" />
          </mxGeometry>
        </mxCell>
        <mxCell id="NLJ27F6-nMZJsIWNo_Eq-50" value="" style="rounded=0;whiteSpace=wrap;html=1;movable=1;resizable=1;rotatable=1;deletable=1;editable=1;locked=0;connectable=1;fontSize=17;" vertex="1" parent="1">
          <mxGeometry x="1260" y="340" width="30" height="110" as="geometry" />
        </mxCell>
        <mxCell id="NLJ27F6-nMZJsIWNo_Eq-52" value="Request for routes" style="endArrow=classic;html=1;rounded=0;fontSize=17;" edge="1" parent="1">
          <mxGeometry width="50" height="50" relative="1" as="geometry">
            <mxPoint x="1740" y="380" as="sourcePoint" />
            <mxPoint x="1310" y="380" as="targetPoint" />
          </mxGeometry>
        </mxCell>
        <mxCell id="NLJ27F6-nMZJsIWNo_Eq-53" value="Sends available routes" style="html=1;verticalAlign=bottom;labelBackgroundColor=none;endArrow=block;endFill=1;dashed=1;rounded=0;fontSize=17;" edge="1" parent="1">
          <mxGeometry width="160" relative="1" as="geometry">
            <mxPoint x="1310" y="430" as="sourcePoint" />
            <mxPoint x="1740" y="430" as="targetPoint" />
            <mxPoint as="offset" />
          </mxGeometry>
        </mxCell>
        <mxCell id="NLJ27F6-nMZJsIWNo_Eq-54" value="Request for logout" style="endArrow=classic;html=1;rounded=0;fontSize=17;" edge="1" parent="1">
          <mxGeometry width="50" height="50" relative="1" as="geometry">
            <mxPoint x="1740" y="560" as="sourcePoint" />
            <mxPoint x="990" y="560" as="targetPoint" />
          </mxGeometry>
        </mxCell>
        <mxCell id="NLJ27F6-nMZJsIWNo_Eq-55" value="Logout prompt" style="html=1;verticalAlign=bottom;labelBackgroundColor=none;endArrow=block;endFill=1;dashed=1;rounded=0;fontSize=17;" edge="1" parent="1">
          <mxGeometry width="160" relative="1" as="geometry">
            <mxPoint x="1000" y="610" as="sourcePoint" />
            <mxPoint x="1740" y="610" as="targetPoint" />
            <mxPoint as="offset" />
          </mxGeometry>
        </mxCell>
        <mxCell id="NLJ27F6-nMZJsIWNo_Eq-56" value="Confirms prompt" style="endArrow=classic;html=1;rounded=0;fontSize=17;" edge="1" parent="1">
          <mxGeometry width="50" height="50" relative="1" as="geometry">
            <mxPoint x="1740" y="670" as="sourcePoint" />
            <mxPoint x="990" y="670" as="targetPoint" />
          </mxGeometry>
        </mxCell>
      </root>
    </mxGraphModel>
  </diagram>
</mxfile>
